<svg xmlns="http://www.w3.org/2000/svg" viewBox="0 0 1000 1000" width="1000" height="1000" role="img" aria-label="b!">
  <g transform="translate(67 204) scale(1.0)">
    <path fill-rule="evenodd" clip-rule="evenodd" d="M694.775 0.646484L601.81 249.904L666.1 249.904L607.795 399.928H772.703L864.865 170.985H793.472L854.217 0.646617L694.775 0.646484ZM750.531 459.448H587.155L535.087 591.499H697.931L750.531 459.448Z" fill="#1f6feb"></path>
    <path fill-rule="evenodd" clip-rule="evenodd" d="M72.0084 135.317V583.351H185.999V551.854C202.998 564.353 221.746 574.102 242.245 581.102C262.743 587.601 284.991 590.851 308.989 590.851C337.487 590.851 364.235 585.351 389.233 574.352C414.231 562.853 435.979 547.604 454.478 528.606C472.976 509.107 487.475 486.359 497.974 460.361C508.973 434.363 514.473 406.365 514.473 376.368C514.473 346.87 508.973 319.372 497.974 293.874C487.475 267.876 472.976 245.378 454.478 226.38C435.979 206.881 414.231 191.633 389.233 180.633C364.235 169.134 337.487 163.385 308.989 163.385C284.991 163.385 262.743 166.635 242.245 173.134C221.746 179.634 202.998 189.133 185.999 201.632V1.22607L47.6003 1.23045L0.459717 135.317H72.0084ZM389.983 333.621C395.482 347.12 398.232 361.369 398.232 376.368C398.232 391.867 395.482 406.615 389.983 420.614C384.483 434.113 376.984 446.112 367.485 456.611C357.985 466.611 346.736 474.61 333.737 480.609C321.238 486.609 307.74 489.609 293.241 489.609C278.742 489.609 264.993 486.609 251.994 480.609C239.495 474.61 228.496 466.611 218.997 456.611C209.497 446.112 201.998 434.113 196.498 420.614C190.999 406.615 188.249 391.867 188.249 376.368C188.249 361.369 190.999 347.12 196.498 333.621C201.998 319.622 209.497 307.623 218.997 297.624C228.996 287.625 240.245 279.626 252.744 273.626C265.743 267.626 279.242 264.627 293.241 264.627C307.74 264.627 321.238 267.626 333.737 273.626C346.236 279.626 357.236 287.625 366.735 297.624C376.734 307.623 384.483 319.622 389.983 333.621Z" fill="#0e1117"></path>
  </g>
</svg>
