<svg xmlns="http://www.w3.org/2000/svg" viewBox="0 0 894.4000000000001 220" width="894.4000000000001" height="220" role="img" aria-label="bah · flow">
  <path d="M93.60 172.80L93.60 172.80Q80.20 172.80 73 168.20Q65.80 163.60 62.40 158L62.40 158L58.80 158L58.80 170L34 170L34 30L59.20 30L59.20 82.20L62.80 82.20Q65 78.60 68.70 75.40Q72.40 72.20 78.50 70.10Q84.60 68 93.60 68L93.60 68Q105.60 68 115.80 73.90Q126 79.80 132.20 91.20Q138.40 102.60 138.40 118.80L138.40 118.80L138.40 122Q138.40 138.20 132.20 149.60Q126 161 115.80 166.90Q105.60 172.80 93.60 172.80ZM86 150.80L86 150.80Q97.60 150.80 105.40 143.30Q113.20 135.80 113.20 121.40L113.20 121.40L113.20 119.40Q113.20 105 105.50 97.50Q97.80 90 86 90L86 90Q74.40 90 66.60 97.50Q58.80 105 58.80 119.40L58.80 119.40L58.80 121.40Q58.80 135.80 66.60 143.30Q74.40 150.80 86 150.80ZM192.40 172.80L192.40 172.80Q181.80 172.80 173.40 169.10Q165.00 165.40 160.10 158.30Q155.20 151.20 155.20 141L155.20 141Q155.20 130.80 160.10 123.90Q165.00 117 173.70 113.50Q182.40 110 193.60 110L193.60 110L220.80 110L220.80 104.40Q220.80 97.40 216.40 92.90Q212.00 88.40 202.40 88.40L202.40 88.40Q193.00 88.40 188.40 92.70Q183.80 97 182.40 103.80L182.40 103.80L159.20 96Q161.60 88.40 166.90 82.10Q172.20 75.80 181.10 71.90Q190.00 68 202.80 68L202.80 68Q222.40 68 233.80 77.80Q245.20 87.60 245.20 106.20L245.20 106.20L245.20 143.20Q245.20 149.20 250.80 149.20L250.80 149.20L258.80 149.20L258.80 170L242.00 170Q234.60 170 229.80 166.40Q225.00 162.80 225.00 156.80L225.00 156.80L225.00 156.60L221.20 156.60Q220.40 159 217.60 162.90Q214.80 166.80 208.80 169.80Q202.80 172.80 192.40 172.80ZM196.80 152.40L196.80 152.40Q207.40 152.40 214.10 146.50Q220.80 140.60 220.80 130.80L220.80 130.80L220.80 128.80L195.40 128.80Q188.40 128.80 184.40 131.80Q180.40 134.80 180.40 140.20L180.40 140.20Q180.40 145.60 184.60 149Q188.80 152.40 196.80 152.40ZM302.40 170L277.20 170L277.20 30L302.40 30L302.40 83L306.00 83Q307.60 79.80 311.00 76.60Q314.40 73.40 320.10 71.30Q325.80 69.20 334.60 69.20L334.60 69.20Q346.20 69.20 354.90 74.50Q363.60 79.80 368.40 89.10Q373.20 98.40 373.20 110.80L373.20 110.80L373.20 170L348.00 170L348.00 112.80Q348.00 101.60 342.50 96Q337.00 90.40 326.80 90.40L326.80 90.40Q315.20 90.40 308.80 98.10Q302.40 105.80 302.40 119.60L302.40 119.60L302.40 170Z" fill="#0e1117"></path>
  <path d="M423.00 126.20L423.00 126.20Q417.20 126.20 413.30 122.40Q409.40 118.60 409.40 112.60L409.40 112.60Q409.40 106.60 413.30 102.80Q417.20 99 423.00 99L423.00 99Q429.00 99 432.80 102.80Q436.60 106.60 436.60 112.60L436.60 112.60Q436.60 118.60 432.80 122.40Q429.00 126.20 423.00 126.20Z" fill="#1f6feb"></path>
  <path d="M509.80 170L497.80 170L497.80 83.60L465.80 83.60L465.80 72.80L497.80 72.80L497.80 45.20Q497.80 38 501.70 34Q505.60 30 513.40 30L513.40 30L537.40 30L537.40 40.80L515.80 40.80Q509.80 40.80 509.80 46.80L509.80 46.80L509.80 72.80L542.60 72.80L542.60 83.60L509.80 83.60L509.80 170ZM573.80 170L561.80 170L561.80 30L573.80 30L573.80 170ZM653.40 172.80L653.40 172.80Q638.60 172.80 627.50 166.50Q616.40 160.20 610.30 148.90Q604.20 137.60 604.20 122.60L604.20 122.60L604.20 120.20Q604.20 105.20 610.30 93.90Q616.40 82.60 627.50 76.30Q638.60 70 653.40 70L653.40 70Q668.20 70 679.30 76.30Q690.40 82.60 696.50 93.90Q702.60 105.20 702.60 120.20L702.60 120.20L702.60 122.60Q702.60 137.60 696.50 148.90Q690.40 160.20 679.30 166.50Q668.20 172.80 653.40 172.80ZM653.40 162L653.40 162Q670.60 162 680.60 151.10Q690.60 140.20 690.60 122.20L690.60 122.20L690.60 120.60Q690.60 102.60 680.60 91.70Q670.60 80.80 653.40 80.80L653.40 80.80Q636.40 80.80 626.30 91.70Q616.20 102.60 616.20 120.60L616.20 120.60L616.20 122.20Q616.20 140.20 626.30 151.10Q636.40 162 653.40 162ZM767.40 170L746.40 170L724.40 72.80L736.80 72.80L756.00 162L758.40 162L783.40 72.80L803.80 72.80L828.80 162L831.20 162L850.40 72.80L862.80 72.80L840.80 170L819.80 170L794.80 80.80L792.40 80.80L767.40 170Z" fill="#0e1117"></path>
</svg>
